<svg xmlns="http://www.w3.org/2000/svg" viewBox="0 0 114.8 35.79"><defs><style>.cls-1,.cls-2,.cls-3{fill:#fff;}.cls-2{font-size:16.82px;}.cls-2,.cls-3{font-family:Helvetica-Bold, Helvetica;font-weight:700;}.cls-3{font-size:16.82px;}</style></defs><title>Asset 1</title><g id="Layer_2" data-name="Layer 2"><g id="Layer_2-2" data-name="Layer 2"><path class="cls-1" d="M33,27.34l-16.27.28A55.58,55.58,0,0,0,33,31.79Z"/><path class="cls-1" d="M33,24.79l0-4.45-16.27.28A55.63,55.63,0,0,0,33,24.79Z"/><path class="cls-1" d="M15.05,26.91A54.48,54.48,0,0,0,0,22.52l0,5.39,16.74-.29C16.18,27.39,15.62,27.16,15.05,26.91Z"/><path class="cls-1" d="M.1,15.52l0,5.39,16.73-.29c-.56-.23-1.11-.45-1.69-.71A54.42,54.42,0,0,0,.1,15.52Z"/><path class="cls-1" d="M15.22,4.91A54.52,54.52,0,0,0,.22.52L.17,6l16.74-.34C16.35,5.39,15.79,5.17,15.22,4.91Z"/><path class="cls-1" d="M33.09,16.79l0-4.45-16.26.28A55.58,55.58,0,0,0,33.09,16.79Z"/><path class="cls-1" d="M33.18,5.34l-16.27.28A55.58,55.58,0,0,0,33.14,9.79Z"/><path class="cls-1" d="M.16,7.52l0,5.4,16.74-.3c-.56-.23-1.12-.45-1.69-.71A54.57,54.57,0,0,0,.16,7.52Z"/><text class="cls-2" transform="translate(35.54 14.46)">music</text><text class="cls-3" transform="translate(36.26 27.7)">discovery</text></g></g></svg>