<svg xmlns="http://www.w3.org/2000/svg" viewBox="0 0 66.1 62.13"><title>Asset 3</title><g id="Layer_2" data-name="Layer 2"><g id="Layer_2-2" data-name="Layer 2"><path d="M66.1,53.21,33.53,54a111.7,111.7,0,0,0,32.57,8.1Z"/><path d="M66.1,48.1V39.18L33.53,40A111.32,111.32,0,0,0,66.1,48.1Z"/><path d="M30.13,52.64C18.51,47.65,8.52,45.08,0,44.07V54.88L33.53,54C32.4,53.58,31.28,53.14,30.13,52.64Z"/><path d="M0,30.05V40.86L33.53,40c-1.13-.45-2.25-.9-3.4-1.39C18.51,33.63,8.52,31.06,0,30.05Z"/><path d="M30.13,8.57C18.51,3.58,8.52,1,0,0V10.82L33.53,10C32.4,9.51,31.28,9.07,30.13,8.57Z"/><path d="M66.1,32.08V23.16L33.53,24A111.64,111.64,0,0,0,66.1,32.08Z"/><path d="M66.1,9.14,33.53,10a111.38,111.38,0,0,0,32.57,8.1Z"/><path d="M0,14V24.84L33.53,24c-1.13-.45-2.25-.9-3.4-1.4C18.51,17.6,8.52,15,0,14Z"/></g></g></svg>